<svg width="1380" height="138" viewBox="0 0 1380 138" fill="none" xmlns="http://www.w3.org/2000/svg">
<path d="M0.605225 88.872C0.605225 79.324 2.83722 70.83 7.30122 63.39C11.7652 55.95 17.8412 50.184 25.5292 46.092C33.3412 41.876 41.9592 39.768 51.3832 39.768C60.6832 39.768 69.1772 41.876 76.8652 46.092C84.6772 50.184 90.8152 55.95 95.2792 63.39C99.7432 70.83 101.975 79.324 101.975 88.872L102.161 135H82.0732V124.026C80.4612 125.514 78.7872 126.94 77.0512 128.304C73.3312 131.032 69.2392 133.264 64.7752 135C60.3112 136.736 55.8472 137.604 51.3832 137.604C42.0832 137.604 33.5272 135.558 25.7152 131.466C18.0272 127.25 11.8892 121.422 7.30122 113.982C2.83722 106.542 0.605225 98.172 0.605225 88.872ZM81.3292 88.872C81.3292 82.548 80.0272 77.03 77.4232 72.318C74.9432 67.482 71.4092 63.824 66.8212 61.344C62.2332 58.74 57.0252 57.438 51.1972 57.438C45.4932 57.438 40.3472 58.74 35.7592 61.344C31.1712 63.824 27.5752 67.482 24.9712 72.318C22.4912 77.03 21.2512 82.548 21.2512 88.872C21.2512 95.072 22.5532 100.528 25.1572 105.24C27.7612 109.952 31.2952 113.61 35.7592 116.214C40.3472 118.818 45.5552 120.12 51.3832 120.12C56.9632 120.12 62.0472 118.818 66.6352 116.214C71.2232 113.61 74.8192 109.952 77.4232 105.24C80.0272 100.528 81.3292 95.072 81.3292 88.872Z" fill="#1C0742"/>
<path d="M125.666 76.596C125.666 68.784 127.402 62.088 130.874 56.508C134.346 50.928 139.244 46.65 145.568 43.674C152.016 40.698 159.394 39.21 167.702 39.21C176.134 39.21 183.512 40.698 189.836 43.674C196.16 46.65 201.058 50.928 204.53 56.508C208.002 62.088 209.738 68.784 209.738 76.596V135H189.836V78.456C189.836 70.892 187.79 65.25 183.698 61.53C179.73 57.81 174.398 55.95 167.702 55.95C161.006 55.95 155.674 57.81 151.706 61.53C147.738 65.25 145.754 70.892 145.754 78.456V135H125.666V76.596Z" fill="#1C0742"/>
<path d="M281.881 137.604C272.581 137.604 264.025 135.558 256.213 131.466C248.525 127.25 242.449 121.422 237.985 113.982C233.521 106.542 231.289 98.172 231.289 88.872C231.289 79.324 233.521 70.83 237.985 63.39C242.449 55.95 248.525 50.184 256.213 46.092C264.025 41.876 272.581 39.768 281.881 39.768C291.181 39.768 299.675 41.876 307.363 46.092C315.175 50.184 321.313 55.95 325.777 63.39C330.365 70.83 332.659 79.324 332.659 88.872C332.659 98.172 330.365 106.542 325.777 113.982C321.313 121.422 315.175 127.25 307.363 131.466C299.675 135.558 291.181 137.604 281.881 137.604ZM281.881 120.12C287.585 120.12 292.731 118.818 297.319 116.214C301.907 113.61 305.441 109.952 307.921 105.24C310.401 100.528 311.641 95.072 311.641 88.872C311.641 82.672 310.401 77.216 307.921 72.504C305.441 67.668 301.907 63.948 297.319 61.344C292.731 58.74 287.585 57.438 281.881 57.438C276.053 57.438 270.845 58.74 266.257 61.344C261.793 63.948 258.321 67.668 255.841 72.504C253.361 77.216 252.121 82.672 252.121 88.872C252.121 95.072 253.361 100.528 255.841 105.24C258.321 109.952 261.793 113.61 266.257 116.214C270.845 118.818 276.053 120.12 281.881 120.12Z" fill="#1C0742"/>
<path d="M396.669 136.86C385.633 136.86 376.767 133.884 370.071 127.932C363.499 121.856 360.213 113.548 360.213 103.008V58.926H342.729L380.301 5.72997V42H420.477V58.926H380.301V101.334C380.301 107.41 381.727 111.936 384.579 114.912C387.555 117.764 391.585 119.19 396.669 119.19C401.629 119.19 405.535 117.764 408.387 114.912C411.239 111.936 412.665 107.41 412.665 101.334V80.688H432.753V103.008C432.753 113.548 429.467 121.856 422.895 127.932C416.323 133.884 407.581 136.86 396.669 136.86Z" fill="#1C0742"/>
<path d="M454.253 2.38197H474.341V42H539.813V135H519.911V58.926H474.341V135H454.253V2.38197Z" fill="#1C0742"/>
<path d="M559.146 88.872C559.146 79.82 561.254 71.574 565.47 64.134C569.81 56.57 575.638 50.618 582.954 46.278C590.27 41.938 598.454 39.768 607.506 39.768C616.434 39.768 624.432 41.69 631.5 45.534C638.568 49.254 644.086 54.648 648.054 61.716C652.146 68.784 654.254 77.03 654.378 86.454V94.452H579.978C580.474 98.42 581.652 102.016 583.512 105.24C586.116 109.952 589.774 113.61 594.486 116.214C599.198 118.818 604.592 120.12 610.668 120.12C616.372 120.12 621.456 119.128 625.92 117.144C630.384 115.036 634.104 112.06 637.08 108.216L650.286 120.12C645.574 125.7 639.87 130.04 633.174 133.14C626.478 136.24 619.1 137.79 611.04 137.79C601.12 137.79 592.192 135.744 584.256 131.652C576.444 127.436 570.306 121.608 565.842 114.168C561.378 106.728 559.146 98.296 559.146 88.872ZM580.722 78.27H633.732C633.236 75.046 632.306 72.07 630.942 69.342C629.082 65.498 626.23 62.46 622.386 60.228C618.542 57.996 613.768 56.88 608.064 56.88C601.492 56.88 596.098 58.244 591.882 60.972C587.666 63.576 584.566 67.296 582.582 72.132C581.714 73.992 581.094 76.038 580.722 78.27Z" fill="#1C0742"/>
<path d="M675.855 73.62C675.855 66.924 677.343 60.972 680.319 55.764C683.419 50.556 687.635 46.526 692.967 43.674C698.423 40.698 704.747 39.21 711.939 39.21C719.131 39.21 725.393 40.636 730.725 43.488C736.181 46.34 740.397 50.432 743.373 55.764C746.349 60.972 747.837 67.172 747.837 74.364V87.57H727.935V74.364C727.935 68.784 726.447 64.32 723.471 60.972C720.619 57.624 716.775 55.95 711.939 55.95C707.103 55.95 703.197 57.624 700.221 60.972C697.369 64.32 695.943 68.784 695.943 74.364V135H675.855V73.62Z" fill="#1C0742"/>
<path d="M821.894 88.128V2.38197H841.982V55.02C843.47 53.036 845.268 51.114 847.376 49.254C850.848 46.402 854.878 44.108 859.466 42.372C864.054 40.636 869.076 39.768 874.532 39.768C883.212 39.768 891.148 41.814 898.34 45.906C905.532 49.874 911.174 55.516 915.266 62.832C919.482 70.148 921.59 78.58 921.59 88.128C921.59 97.676 919.482 106.17 915.266 113.61C911.174 121.05 905.284 126.816 897.596 130.908C890.032 135 881.29 137.046 871.37 137.046C861.574 137.046 852.894 135 845.33 130.908C837.89 126.816 832.124 121.05 828.032 113.61C823.94 106.17 821.894 97.676 821.894 88.128ZM900.758 88.128C900.758 81.928 899.518 76.41 897.038 71.574C894.682 66.738 891.272 63.018 886.808 60.414C882.468 57.81 877.322 56.508 871.37 56.508C865.418 56.508 860.21 57.81 855.746 60.414C851.406 63.018 847.996 66.738 845.516 71.574C843.16 76.286 841.982 81.68 841.982 87.756C841.982 94.204 843.16 99.908 845.516 104.868C847.996 109.828 851.468 113.672 855.932 116.4C860.396 119.128 865.542 120.492 871.37 120.492C877.198 120.492 882.282 119.128 886.622 116.4C891.086 113.672 894.558 109.89 897.038 105.054C899.518 100.094 900.758 94.452 900.758 88.128Z" fill="#1C0742"/>
<path d="M939.142 88.872C939.142 79.324 941.374 70.83 945.838 63.39C950.302 55.95 956.378 50.184 964.066 46.092C971.878 41.876 980.496 39.768 989.92 39.768C999.22 39.768 1007.71 41.876 1015.4 46.092C1023.21 50.184 1029.35 55.95 1033.82 63.39C1038.28 70.83 1040.51 79.324 1040.51 88.872L1040.7 135H1020.61V124.026C1019 125.514 1017.32 126.94 1015.59 128.304C1011.87 131.032 1007.78 133.264 1003.31 135C998.848 136.736 994.384 137.604 989.92 137.604C980.62 137.604 972.064 135.558 964.252 131.466C956.564 127.25 950.426 121.422 945.838 113.982C941.374 106.542 939.142 98.172 939.142 88.872ZM1019.87 88.872C1019.87 82.548 1018.56 77.03 1015.96 72.318C1013.48 67.482 1009.95 63.824 1005.36 61.344C1000.77 58.74 995.562 57.438 989.734 57.438C984.03 57.438 978.884 58.74 974.296 61.344C969.708 63.824 966.112 67.482 963.508 72.318C961.028 77.03 959.788 82.548 959.788 88.872C959.788 95.072 961.09 100.528 963.694 105.24C966.298 109.952 969.832 113.61 974.296 116.214C978.884 118.818 984.092 120.12 989.92 120.12C995.5 120.12 1000.58 118.818 1005.17 116.214C1009.76 113.61 1013.36 109.952 1015.96 105.24C1018.56 100.528 1019.87 95.072 1019.87 88.872Z" fill="#1C0742"/>
<path d="M1097.5 137.976C1090.3 137.976 1083.73 136.736 1077.78 134.256C1071.83 131.776 1067.12 128.118 1063.64 123.282C1060.17 118.322 1058.44 112.308 1058.44 105.24H1077.59C1077.59 110.82 1079.21 114.974 1082.43 117.702C1085.78 120.43 1090.8 121.794 1097.5 121.794C1104.07 121.794 1108.97 120.864 1112.19 119.004C1115.41 117.144 1117.03 114.354 1117.03 110.634C1117.03 107.286 1115.85 104.744 1113.49 103.008C1111.26 101.148 1107.42 99.598 1101.96 98.358L1084.66 94.266C1077.22 92.53 1071.52 89.492 1067.55 85.152C1063.58 80.812 1061.6 74.86 1061.6 67.296C1061.6 61.592 1063.09 56.694 1066.06 52.602C1069.16 48.386 1073.5 45.224 1079.08 43.116C1084.66 40.884 1091.11 39.768 1098.43 39.768C1105.49 39.768 1111.82 41.008 1117.4 43.488C1123.1 45.968 1127.57 49.564 1130.79 54.276C1134.14 58.988 1135.81 64.568 1135.81 71.016L1117.21 70.83C1117.21 65.994 1115.41 62.336 1111.82 59.856C1108.22 57.252 1103.57 55.95 1097.87 55.95C1092.29 55.95 1088.01 56.818 1085.03 58.554C1082.18 60.166 1080.76 62.77 1080.76 66.366C1080.76 69.218 1081.75 71.512 1083.73 73.248C1085.72 74.86 1088.69 76.1 1092.66 76.968L1109.77 81.246C1115.72 82.734 1120.62 84.47 1124.47 86.454C1128.43 88.314 1131.47 90.918 1133.58 94.266C1135.69 97.614 1136.74 101.954 1136.74 107.286C1136.74 113.61 1135.13 119.128 1131.91 123.84C1128.68 128.428 1124.09 131.962 1118.14 134.442C1112.19 136.798 1105.31 137.976 1097.5 137.976Z" fill="#1C0742"/>
<path d="M1156.67 42H1176.57V135H1156.67V42ZM1167.08 25.446C1163.24 25.446 1160.08 24.268 1157.6 21.912C1155.24 19.432 1154.06 16.394 1154.06 12.798C1154.06 9.32597 1155.3 6.41197 1157.78 4.05597C1160.26 1.69997 1163.36 0.521973 1167.08 0.521973C1170.68 0.521973 1173.72 1.69997 1176.2 4.05597C1178.68 6.41197 1179.92 9.32597 1179.92 12.798C1179.92 16.394 1178.68 19.432 1176.2 21.912C1173.72 24.268 1170.68 25.446 1167.08 25.446Z" fill="#1C0742"/>
<path d="M1249.85 137.79C1240.18 137.79 1231.44 135.744 1223.63 131.652C1215.81 127.436 1209.74 121.608 1205.4 114.168C1201.06 106.728 1198.89 98.296 1198.89 88.872C1198.89 79.324 1201.12 70.83 1205.58 63.39C1210.05 55.95 1216.12 50.184 1223.81 46.092C1231.62 41.876 1240.18 39.768 1249.48 39.768C1257.17 39.768 1264.24 41.318 1270.68 44.418C1277.13 47.394 1282.77 51.734 1287.61 57.438L1274.4 69.342C1271.3 65.374 1267.65 62.398 1263.43 60.414C1259.34 58.306 1254.69 57.252 1249.48 57.252C1243.65 57.252 1238.44 58.554 1233.86 61.158C1229.39 63.762 1225.86 67.482 1223.25 72.318C1220.77 77.03 1219.53 82.548 1219.53 88.872C1219.53 95.072 1220.77 100.528 1223.25 105.24C1225.86 109.952 1229.45 113.61 1234.04 116.214C1238.63 118.818 1243.9 120.12 1249.85 120.12C1255.43 120.12 1260.27 119.128 1264.36 117.144C1268.58 115.036 1272.23 112.06 1275.33 108.216L1288.54 120.12C1283.7 125.7 1278 130.04 1271.43 133.14C1264.98 136.24 1257.79 137.79 1249.85 137.79Z" fill="#1C0742"/>
<path d="M1339.99 137.976C1332.79 137.976 1326.22 136.736 1320.27 134.256C1314.32 131.776 1309.61 128.118 1306.13 123.282C1302.66 118.322 1300.93 112.308 1300.93 105.24H1320.08C1320.08 110.82 1321.7 114.974 1324.92 117.702C1328.27 120.43 1333.29 121.794 1339.99 121.794C1346.56 121.794 1351.46 120.864 1354.68 119.004C1357.9 117.144 1359.52 114.354 1359.52 110.634C1359.52 107.286 1358.34 104.744 1355.98 103.008C1353.75 101.148 1349.91 99.598 1344.45 98.358L1327.15 94.266C1319.71 92.53 1314.01 89.492 1310.04 85.152C1306.07 80.812 1304.09 74.86 1304.09 67.296C1304.09 61.592 1305.58 56.694 1308.55 52.602C1311.65 48.386 1315.99 45.224 1321.57 43.116C1327.15 40.884 1333.6 39.768 1340.92 39.768C1347.98 39.768 1354.31 41.008 1359.89 43.488C1365.59 45.968 1370.06 49.564 1373.28 54.276C1376.63 58.988 1378.3 64.568 1378.3 71.016L1359.7 70.83C1359.7 65.994 1357.9 62.336 1354.31 59.856C1350.71 57.252 1346.06 55.95 1340.36 55.95C1334.78 55.95 1330.5 56.818 1327.52 58.554C1324.67 60.166 1323.25 62.77 1323.25 66.366C1323.25 69.218 1324.24 71.512 1326.22 73.248C1328.21 74.86 1331.18 76.1 1335.15 76.968L1352.26 81.246C1358.21 82.734 1363.11 84.47 1366.96 86.454C1370.92 88.314 1373.96 90.918 1376.07 94.266C1378.18 97.614 1379.23 101.954 1379.23 107.286C1379.23 113.61 1377.62 119.128 1374.4 123.84C1371.17 128.428 1366.58 131.962 1360.63 134.442C1354.68 136.798 1347.8 137.976 1339.99 137.976Z" fill="#1C0742"/>
</svg>
