<svg width="1387" height="221" viewBox="0 0 1387 221" fill="none" xmlns="http://www.w3.org/2000/svg">
<path d="M57.212 158.679L37.61 216H0.188L77.111 4.536H124.928L201.851 216H164.429L144.827 158.679H57.212ZM128.492 111.159C116.612 75.915 107.504 47.898 101.168 27.108H100.574C90.08 61.362 81.071 89.379 73.547 111.159L67.904 127.791H134.135L128.492 111.159ZM357.477 216L311.739 127.494C295.701 96.21 280.752 65.916 266.892 36.612H266.298C267.486 68.688 268.08 100.764 268.08 132.84V216H233.628V4.536H285.009L330.45 93.042C346.488 124.326 361.437 154.62 375.297 183.924H375.891C374.901 148.284 374.406 116.208 374.406 87.696V4.536H408.561V216H357.477ZM547.067 216H511.427V131.058L437.177 4.536H477.569L500.735 46.413C510.635 64.233 520.04 82.449 528.95 101.061H529.544C539.048 81.261 548.552 63.045 558.056 46.413L580.925 4.536H621.02L547.067 131.058V216ZM717.457 4.536C752.899 4.536 780.223 13.743 799.429 32.157C818.635 50.373 828.238 76.41 828.238 110.268C828.238 144.126 818.635 170.262 799.429 188.676C780.223 206.892 752.899 216 717.457 216H649.741V4.536H717.457ZM685.084 185.112H716.863C741.415 185.112 759.928 178.875 772.402 166.401C785.074 153.729 791.41 135.018 791.41 110.268C791.41 85.518 785.074 66.906 772.402 54.432C759.928 41.76 741.415 35.424 716.863 35.424H685.084V185.112ZM901.04 158.679L881.438 216H844.016L920.939 4.536H968.756L1045.68 216H1008.26L988.655 158.679H901.04ZM972.32 111.159C960.44 75.915 951.332 47.898 944.996 27.108H944.402C933.908 61.362 924.899 89.379 917.375 111.159L911.732 127.791H977.963L972.32 111.159ZM1141.51 216H1105.87V131.058L1031.62 4.536H1072.01L1095.18 46.413C1105.08 64.233 1114.48 82.449 1123.39 101.061H1123.98C1133.49 81.261 1142.99 63.045 1152.5 46.413L1175.37 4.536H1215.46L1141.51 131.058V216ZM1302.47 0.0809829C1328.01 0.0809829 1347.32 6.02098 1360.39 17.901C1373.65 29.583 1380.28 46.809 1380.28 69.579H1344.35C1344.35 56.313 1340.68 46.314 1333.36 39.582C1326.03 32.652 1315.54 29.187 1301.88 29.187C1290.39 29.187 1281.28 31.761 1274.55 36.909C1268.02 41.859 1264.75 48.69 1264.75 57.402C1264.75 63.738 1266.34 68.886 1269.5 72.846C1272.87 76.608 1277.82 79.875 1284.35 82.647C1291.09 85.221 1300.69 87.993 1313.16 90.963C1329.4 94.923 1342.47 99.081 1352.37 103.437C1362.46 107.595 1370.58 113.832 1376.72 122.148C1383.06 130.464 1386.22 141.651 1386.22 155.709C1386.22 168.579 1382.96 179.964 1376.42 189.864C1369.89 199.566 1360.58 207.09 1348.51 212.436C1336.63 217.782 1322.86 220.455 1307.22 220.455C1281.28 220.455 1261.09 214.119 1246.63 201.447C1232.18 188.577 1224.95 170.163 1224.95 146.205H1261.48C1261.48 161.055 1265.44 172.242 1273.36 179.766C1281.28 187.29 1292.67 191.052 1307.52 191.052C1320.59 191.052 1330.78 188.181 1338.11 182.439C1345.63 176.697 1349.4 168.876 1349.4 158.976C1349.4 152.046 1347.71 146.601 1344.35 142.641C1340.98 138.681 1336.13 135.513 1329.79 133.137C1323.66 130.761 1314.25 127.989 1301.58 124.821C1284.95 120.663 1271.68 116.505 1261.78 112.347C1251.88 108.189 1243.76 102.051 1237.43 93.933C1231.29 85.617 1228.22 74.529 1228.22 60.669C1228.22 48.789 1231.29 38.295 1237.43 29.187C1243.57 19.881 1252.18 12.753 1263.27 7.80299C1274.55 2.65499 1287.62 0.0809829 1302.47 0.0809829Z" fill="#1C0742"/>
</svg>
