<svg width="25" height="24" viewBox="0 0 25 24" fill="none" xmlns="http://www.w3.org/2000/svg">
<circle cx="12.5" cy="12" r="9" stroke="#181818" stroke-width="1.2" stroke-linecap="round"/>
<path d="M7.5 14C8.49804 15.7934 10.3635 17 12.5 17C14.6365 17 16.502 15.7934 17.5 14" stroke="#181818" stroke-width="1.2" stroke-linecap="round"/>
<path d="M9.5 11.4C8.7268 11.4 8.1 10.7732 8.1 10C8.1 9.2268 8.7268 8.6 9.5 8.6C10.2732 8.6 10.9 9.2268 10.9 10C10.9 10.7732 10.2732 11.4 9.5 11.4ZM15.5 11.4C14.7268 11.4 14.1 10.7732 14.1 10C14.1 9.2268 14.7268 8.6 15.5 8.6C16.2732 8.6 16.9 9.2268 16.9 10C16.9 10.7732 16.2732 11.4 15.5 11.4Z" stroke="#181818" stroke-width="1.2" stroke-linecap="round"/>
</svg>
